<svg width="17" height="18" viewBox="0 0 17 18" fill="none" xmlns="http://www.w3.org/2000/svg">
<rect y="0.5" width="17" height="17" rx="2" fill="#0068A5"/>
<path d="M9.97096 3.60437C9.36496 3.70138 8.89516 4.12176 8.77534 4.67489C8.76069 4.74467 8.75724 4.79062 8.75638 4.9106C8.75638 5.0825 8.76931 5.17185 8.81672 5.31056C8.94516 5.69009 9.24687 5.93432 9.68649 6.01516C9.8089 6.03728 10.0873 6.03473 10.2201 6.01005C10.8157 5.89858 11.2554 5.49181 11.3648 4.95145C11.3916 4.817 11.3916 4.5966 11.3648 4.47066C11.2666 4.01709 10.9493 3.71415 10.4701 3.61629C10.3554 3.59331 10.0839 3.5865 9.97096 3.60437Z" fill="white"/>
<path d="M9.01847 6.63549C8.83573 6.65251 8.78142 6.65846 8.67625 6.67634C8.0806 6.7759 7.46943 7.05416 6.91946 7.47624C6.76257 7.59708 6.63672 7.706 6.41518 7.91619C5.90228 8.40209 5.62988 8.74503 5.61609 8.92118C5.61092 8.98586 5.62557 9.0233 5.67557 9.07776C5.74022 9.14584 5.81263 9.16966 5.88677 9.14499C5.98073 9.1135 6.11348 8.99096 6.43156 8.63866C6.89619 8.12298 7.09876 7.93576 7.32375 7.81408C7.44012 7.75025 7.52287 7.72472 7.6177 7.72387C7.68838 7.72302 7.69872 7.72558 7.73665 7.74685C7.83665 7.80472 7.87544 7.9247 7.84182 8.06681C7.83406 8.09745 7.54098 8.80545 7.18927 9.6411C6.83843 10.4767 6.51259 11.2511 6.4669 11.3609C6.2195 11.9515 6.02469 12.5429 5.93676 12.9684C5.87642 13.2594 5.85918 13.5496 5.89194 13.7121C5.9678 14.0865 6.22037 14.3103 6.65224 14.3861C6.75913 14.4057 6.99791 14.4116 7.13669 14.3997C7.81165 14.341 8.57971 14.0074 9.34432 13.4424C10.0305 12.9352 10.6304 12.2902 10.7296 11.9523C10.7666 11.8281 10.7011 11.6902 10.5848 11.646C10.5322 11.6264 10.4986 11.6332 10.4356 11.6766C10.3451 11.7396 10.2615 11.8213 9.971 12.1268C9.52706 12.5957 9.31414 12.7931 9.1245 12.9156C8.90813 13.0552 8.7478 13.0739 8.65643 12.9709C8.60815 12.9165 8.59264 12.8595 8.59867 12.7607C8.60988 12.6084 8.67711 12.3914 8.81331 12.0672C8.92969 11.7915 10.1822 8.57654 10.2322 8.42507C10.3236 8.14851 10.3624 7.94768 10.3693 7.72217C10.377 7.48305 10.3503 7.32817 10.2727 7.16734C10.2227 7.06352 10.1744 6.998 10.0908 6.91886C9.87963 6.72059 9.58913 6.62698 9.19088 6.63123C9.11243 6.63208 9.03485 6.63379 9.01847 6.63549Z" fill="white"/>
</svg>
